<svg width="430" height="64" viewBox="0 0 430 64" fill="none" xmlns="http://www.w3.org/2000/svg">
<path fill-rule="evenodd" clip-rule="evenodd" d="M158.89 22.0672H166.702C165.335 29.3972 164.125 35.7948 162.758 43.1248C162.59 44.4333 165.178 44.2469 165.391 43.3024L169.321 22.0668H177.834C176.049 31.722 174.057 41.8435 172.273 51.4987C171.522 55.4835 168.609 56.6816 166.441 56.7043C163.8 56.7337 161.16 56.7632 158.52 56.7931C156.289 56.8331 153.566 56.5406 154.073 53.8503L154.656 50.8422H161.52C161.466 51.1045 161.266 51.8986 161.184 52.286C161.093 53.8443 163.553 53.7834 163.818 52.3797L164.829 47.0974C163.466 47.5264 161.706 48.4573 157.479 48.1323C156.481 47.9962 154.221 46.9901 154.674 44.445L158.89 22.0672Z" fill="#FFFEFD"/>
<path fill-rule="evenodd" clip-rule="evenodd" d="M181.845 21.8687H190.107L189.998 22.9126C191.044 22.3612 191.494 21.8687 193.32 21.8687C194.293 21.8687 195.683 21.8691 196.757 21.8687C199.174 21.8683 200.5 23.0525 200.097 25.522C198.856 31.9238 197.82 37.8168 196.578 44.219C196.199 45.9481 195.446 46.992 194.024 47.7498C192.602 48.5076 187.924 48.6818 185.339 47.0831C184.865 49.5462 184.273 52.5524 183.799 55.0159C183.686 55.6029 183.071 56.7148 181.524 56.7148H175.357L181.845 21.8687ZM189.663 25.5265C189.764 25.0715 190.429 24.83 191.094 24.8651C191.747 24.8999 192.365 25.2884 192.276 25.7571C191.113 31.9332 190.011 37.7854 188.845 43.9744C188.754 44.4586 188.011 44.7485 187.348 44.6876C186.706 44.6287 186.141 44.1566 186.224 43.7476C186.27 43.4245 186.381 42.9165 186.439 42.6047C187.535 36.7378 188.568 31.3935 189.663 25.5265Z" fill="#FFFEFD"/>
<path fill-rule="evenodd" clip-rule="evenodd" d="M22.3946 27.366C22.7692 27.2353 22.9918 27.3056 23.5353 27.0803C25.2682 26.428 27.7082 25.7439 30.0999 26.5372C33.1016 27.5327 33.6432 31.378 31.1079 33.9205C28.5726 36.463 21.0978 36.85 19.0293 34.5317C17.9646 33.3585 18.4813 30.8814 18.5701 30.3284C19.5566 24.9056 20.3374 21.1646 21.3239 15.7414C21.6806 13.8467 22.8221 11.8605 26.3378 11.8605H97.4783L99.7124 0C72.0659 0 47.8335 0 20.1874 0C8.13523 0 4.79032 6.5658 3.63416 12.7019C2.43907 18.6981 1.3933 24.4679 0.198591 30.4641C-1.75089 43.1376 11.0742 48.0896 20.1874 48.2154C29.0912 48.6127 45.0325 46.91 48.9621 32.6067C52.8633 16.2909 36.6495 13.338 24.5686 16.1031C23.7866 20.1245 23.1777 23.0665 22.3946 27.366Z" fill="#FFFEFD"/>
<path fill-rule="evenodd" clip-rule="evenodd" d="M90.112 47.523C91.3154 41.3431 92.3461 35.4554 93.5495 29.2755C93.9758 26.3524 99.0207 26.4385 98.6186 29.2755L95.1808 47.523H112.088C113.454 40.3015 114.725 33.4242 116.091 26.2031C116.985 21.4934 111.639 16.6394 103.987 16.103C96.3346 15.5667 89.4612 17.8688 86.6057 20.2488C84.6483 17.8688 78.665 15.5667 70.8107 16.103C62.9565 16.6394 55.778 21.4934 54.8955 26.2031C53.536 33.4242 52.212 40.3015 50.8525 47.523H67.7599L71.208 29.2755C71.7428 26.2155 76.7181 26.4412 76.2771 29.2755C75.1485 35.4554 73.9572 41.3431 72.8286 47.523H90.112Z" fill="#FFFEFD"/>
<path fill-rule="evenodd" clip-rule="evenodd" d="M103.42 0L101.186 11.8605H118.009L120.243 0H103.42Z" fill="#D8201F"/>
<path d="M357.847 59.6171C358.066 58.481 358.669 57.4927 359.656 56.6525C360.642 55.8115 361.698 55.392 362.818 55.392C363.961 55.392 364.858 55.8081 365.507 56.6408C366.157 57.4745 366.37 58.4655 366.149 59.6171C365.929 60.7605 365.334 61.7526 364.361 62.5928C363.39 63.4326 362.333 63.8529 361.19 63.8529C360.069 63.8529 359.175 63.4371 358.512 62.6034C357.846 61.7707 357.625 60.7748 357.847 59.6171ZM358.963 59.6051C358.798 60.4607 358.95 61.2114 359.421 61.8543C359.892 62.4983 360.547 62.8195 361.388 62.8195C362.228 62.8195 363.005 62.4983 363.721 61.8543C364.435 61.2114 364.875 60.4607 365.039 59.6051C365.202 58.7581 365.051 58.0109 364.583 57.368C364.117 56.7243 363.463 56.4027 362.623 56.4027C361.79 56.4027 361.013 56.7202 360.293 57.3574C359.573 57.9931 359.128 58.7422 358.963 59.6051Z" fill="#FFFEFD"/>
<path d="M296.769 55.5273C297.488 55.5273 298.024 55.703 298.378 56.0508C298.731 56.3988 298.856 56.8411 298.752 57.3789C298.667 57.8188 298.516 58.173 298.298 58.4409C298.08 58.7093 297.822 58.8896 297.525 58.9803C297.936 59.3136 298.21 59.6549 298.345 60.0026C298.478 60.3507 298.49 60.8133 298.379 61.389C298.26 62.0016 297.915 62.5587 297.342 63.0576C296.733 63.5883 296.073 63.8528 295.361 63.8528C294.429 63.8528 293.765 63.5652 293.369 62.99C293.019 62.4824 292.916 61.8542 293.06 61.1047L294.133 55.5273H296.769ZM296.611 56.527H295.02L294.58 58.8219C294.671 58.7762 295.551 58.608 295.778 58.5827C296.004 58.5585 296.198 58.5244 296.317 58.521C296.646 58.5078 297.059 58.5331 297.288 58.3215C297.471 58.1503 297.596 57.9024 297.658 57.5834C297.793 56.88 297.443 56.527 296.611 56.527ZM294.137 61.0949C294.039 61.6195 294.119 62.0379 294.384 62.3554C294.63 62.6517 294.976 62.7991 295.423 62.7991C295.915 62.7991 296.34 62.6381 296.697 62.3172C297.054 61.9944 297.277 61.6063 297.364 61.152C297.441 60.751 297.351 60.3953 297.092 60.085C296.834 59.7744 296.481 59.6194 296.034 59.6194C295.451 59.6194 294.633 59.8756 294.329 60.1103C294.31 60.1769 294.303 60.2116 294.137 61.0949Z" fill="#FFFEFD"/>
<path d="M251.014 63.7055L251.584 60.7412H248.087L247.517 63.7055H246.425L247.413 58.5717C247.604 57.5796 248.017 56.8003 248.648 56.2322C249.279 55.6642 250.019 55.3803 250.868 55.3803C251.716 55.3803 252.346 55.6642 252.759 56.2322C253.172 56.8003 253.283 57.5796 253.091 58.5717L252.104 63.7055H251.014ZM250.673 56.3917C250.113 56.3917 249.645 56.5769 249.271 56.9477C248.897 57.3184 248.641 57.8672 248.5 58.5948L248.286 59.7079H251.784L251.998 58.5948C252.281 57.1253 251.839 56.3917 250.673 56.3917Z" fill="#FFFEFD"/>
<path d="M392.982 63.7055L393.553 60.7412H390.055L389.484 63.7055H388.394L389.38 58.5717C389.572 57.5796 389.985 56.8003 390.616 56.2322C391.247 55.6642 391.987 55.3803 392.836 55.3803C393.684 55.3803 394.313 55.6642 394.727 56.2322C395.14 56.8003 395.25 57.5796 395.059 58.5717L394.072 63.7055H392.982ZM392.641 56.3917C392.08 56.3917 391.613 56.5769 391.239 56.9477C390.865 57.3184 390.609 57.8672 390.468 58.5948L390.254 59.7079H393.752L393.966 58.5948C394.248 57.1253 393.807 56.3917 392.641 56.3917Z" fill="#FFFEFD"/>
<path d="M332.107 63.7055L332.678 60.7412H329.18L328.61 63.7055H327.519L328.506 58.5717C328.697 57.5796 329.11 56.8003 329.741 56.2322C330.372 55.6642 331.112 55.3803 331.961 55.3803C332.809 55.3803 333.439 55.6642 333.852 56.2322C334.266 56.8003 334.375 57.5796 334.184 58.5717L333.197 63.7055H332.107ZM331.766 56.3917C331.206 56.3917 330.738 56.5769 330.365 56.9477C329.99 57.3184 329.734 57.8672 329.594 58.5948L329.38 59.7079H332.877L333.091 58.5948C333.373 57.1253 332.933 56.3917 331.766 56.3917Z" fill="#FFFEFD"/>
<path fill-rule="evenodd" clip-rule="evenodd" d="M133.222 15.7338L127.186 47.8254C130.452 47.8254 133.788 47.825 137.166 47.8254C137.24 47.5419 137.437 46.978 137.492 46.7648C138.581 47.927 140.928 47.8556 142.133 47.8254C144.595 47.8254 142.627 47.8284 145.008 47.8284C148.024 47.8254 150.089 46.2833 150.537 43.9041C151.384 39.4953 153.164 30.3889 154.007 25.9736C154.41 23.3439 152.269 22.0671 150.423 22.0671C147.927 22.0671 146.193 22.0671 143.697 22.0671C143.437 22.0671 142.347 22.3177 142.195 22.6031L143.393 16.2451H154.62L155.792 12.7529C149.482 12.7529 142.784 12.7532 136.474 12.7529C134.649 12.7525 133.652 13.5039 133.222 15.7338ZM141.777 26.7862C142.062 25.6943 142.836 25.4423 143.68 25.4581C144.565 25.4748 145.09 26.1505 144.899 27.1646C144.211 30.7548 142.561 39.7126 142.022 42.4373C141.838 43.4124 140.745 43.8508 139.91 43.7609C139.414 43.7076 138.575 43.262 138.738 42.4671L141.777 26.7862Z" fill="#FFFEFD"/>
<path fill-rule="evenodd" clip-rule="evenodd" d="M242.125 35.9172H231.53C231.057 38.5527 230.615 40.78 230.116 43.4241C229.956 44.1857 230.72 44.4937 231.229 44.5266C231.771 44.5614 232.563 44.3928 232.778 43.5209L233.714 38.5308H241.621C241.539 38.9673 241.296 39.4564 241.2 39.9651C240.858 41.7834 240.467 43.861 240.3 44.7621C239.931 46.5094 237.595 47.9006 235.85 47.9335C232.45 47.9335 229.202 47.9335 225.803 47.9335C223.403 47.8749 221.081 46.8438 221.492 44.2707C222.686 37.8232 223.899 31.5768 225.093 25.1297C225.476 23.4542 227.822 21.891 230.168 21.8687C233.411 21.8687 236.655 21.8687 239.898 21.8687C243.011 21.8687 244.364 23.9713 244.15 25.1297L242.125 35.9172ZM232.065 33.0584H234.746C235.205 30.497 235.487 29.2441 235.945 26.7129C236.029 26.2677 235.293 25.8501 234.751 25.8338C234.244 25.8187 233.376 26.0772 233.295 26.5202L232.065 33.0584Z" fill="#FFFEFD"/>
<path fill-rule="evenodd" clip-rule="evenodd" d="M247.831 22.0229H256.734V29.7135L256.98 30.2876L260.231 22.0672H268.322L262.703 33.7826L264.398 47.8254H255.538V38.5349L255.24 37.8176L251.202 47.8254H243.088L249.24 34.5487L247.831 22.0229Z" fill="#FFFEFD"/>
<path fill-rule="evenodd" clip-rule="evenodd" d="M272.542 22.0671H280.698L278.659 32.8947L281.317 32.8422L283.347 22.0671H291.51L286.658 47.8254H278.494L280.753 35.8749L278.089 35.9168L275.846 47.8254H267.689L272.542 22.0671Z" fill="#FFFEFD"/>
<path fill-rule="evenodd" clip-rule="evenodd" d="M364.472 22.0611L359.622 47.8254L368.124 47.825L372.413 25.254H379.707L380.709 22.0671L364.472 22.0611Z" fill="#FFFEFD"/>
<path fill-rule="evenodd" clip-rule="evenodd" d="M383.484 22.0668L391.46 22.0672L388.356 38.0443L388.851 37.5817L395.418 24.1122L396.074 22.0672L403.8 22.0668L399.012 47.8254H390.932L393.043 36.6142L388.121 46.3997L387.42 47.8254L378.632 47.825L383.484 22.0668Z" fill="#FFFEFD"/>
<path fill-rule="evenodd" clip-rule="evenodd" d="M202.699 22.0671L202.055 25.4869H208.322L204.114 47.8254H212.613L216.822 25.4869H222.466L223.497 22.0671H202.699Z" fill="#FFFEFD"/>
<path d="M194.981 63.7055H193.89L194.879 58.5611C195.069 57.5762 195.481 56.8003 196.112 56.2322C196.743 55.6642 197.484 55.3803 198.332 55.3803C199.181 55.3803 199.81 55.6642 200.223 56.2322C200.636 56.8003 200.748 57.5762 200.558 58.5611L199.568 63.7055H198.478L199.457 58.6178C199.74 57.1484 199.299 56.4136 198.133 56.4136C197.572 56.4136 197.105 56.5996 196.731 56.9707C196.356 57.3415 196.1 57.8903 195.96 58.6178L194.981 63.7055Z" fill="#FFFEFD"/>
<path d="M203.993 55.5277H208.048L207.854 56.5391H204.877L204.417 58.9357H207.166L206.972 59.946H204.222L204.012 61.036C203.911 61.5666 203.972 61.9748 204.197 62.2624C204.422 62.5516 204.795 62.6952 205.317 62.6952H206.669L206.475 63.7055H205.305C203.381 63.7055 202.602 62.7595 202.965 60.8655L203.993 55.5277Z" fill="#FFFEFD"/>
<path d="M209.188 63.7055L210.142 58.7531C210.238 58.2467 210.338 57.8468 210.44 57.5554C210.541 57.2644 210.707 56.9741 210.937 56.6865C211.621 55.8081 212.478 55.3693 213.507 55.3693C214.249 55.3693 214.833 55.6278 215.261 56.1475C215.686 56.6661 215.829 57.292 215.687 58.0267C215.557 58.7085 215.219 59.314 214.674 59.8443C214.13 60.3738 213.545 60.6395 212.925 60.6395C212.614 60.6395 212.347 60.6104 212.124 60.5537C211.9 60.497 211.706 60.4003 211.543 60.2638L211.602 58.9584C211.709 59.147 211.873 59.303 212.097 59.424C212.32 59.5446 212.56 59.605 212.817 59.605C213.226 59.605 213.6 59.4504 213.94 59.1398C214.281 58.8291 214.493 58.4511 214.579 58.0036C214.665 57.558 214.582 57.1786 214.333 56.8679C214.081 56.5584 213.732 56.4026 213.286 56.4026C212.802 56.4026 212.382 56.5671 212.027 56.897C211.672 57.2254 211.439 57.6786 211.328 58.2539L210.279 63.7055H209.188Z" fill="#FFFEFD"/>
<path d="M216.63 63.6945L219.075 56.4136C219.295 55.7476 219.646 55.4139 220.131 55.4139C220.554 55.4139 220.795 55.6872 220.848 56.2322L221.555 62.0583L224.494 56.2322C224.758 55.6872 225.102 55.4139 225.526 55.4139C226.01 55.4139 226.234 55.7476 226.197 56.4136L225.841 63.6945H224.796L225.16 56.9597L222.131 62.9673C221.842 63.5195 221.539 63.7961 221.221 63.7961C221.04 63.7961 220.905 63.7322 220.815 63.6026C220.727 63.4749 220.661 63.2621 220.621 62.9673L219.901 56.9597L217.686 63.6945H216.63Z" fill="#FFFEFD"/>
<path d="M229.134 59.6617C229.355 58.5113 229.961 57.5119 230.949 56.6634C231.937 55.8165 232.993 55.3924 234.113 55.3924C234.772 55.3924 235.35 55.5326 235.848 55.8115C236.3 56.0617 236.678 56.4257 236.978 56.9031L236.001 57.5615C235.764 57.182 235.476 56.8944 235.139 56.6975C234.802 56.5017 234.396 56.4027 233.919 56.4027C233.086 56.4027 232.308 56.7266 231.585 57.3744C230.862 58.0207 230.416 58.7845 230.247 59.6617C230.088 60.4872 230.247 61.2197 230.722 61.8603C231.197 62.4994 231.851 62.8195 232.683 62.8195C233.205 62.8195 233.722 62.6857 234.232 62.4163C234.741 62.1479 235.176 61.7669 235.535 61.2752L236.306 61.934C235.799 62.5247 235.215 62.9915 234.554 63.337C233.894 63.6813 233.204 63.8529 232.485 63.8529C231.365 63.8529 230.469 63.4409 229.805 62.6154C229.137 61.79 228.914 60.8051 229.134 59.6617Z" fill="#FFFEFD"/>
<path d="M238.453 63.7055L240.026 55.5277H241.095L240.443 58.9127L244.161 55.5277H245.671L242.199 58.6394C242.368 58.5876 242.498 58.5611 242.59 58.5611C243.073 58.5611 243.489 58.746 243.834 59.1167C244.236 59.5484 244.373 60.0896 244.248 60.7412L243.677 63.7055H242.587L243.136 60.8546C243.202 60.5065 243.129 60.1996 242.915 59.935C242.664 59.6243 242.29 59.4697 241.791 59.4697C241.343 59.4697 240.967 59.5846 240.661 59.8156C240.356 60.0461 240.157 60.4003 240.065 60.8776L239.521 63.7055H238.453Z" fill="#FFFEFD"/>
<path d="M260.078 63.7055H258.988L260.036 58.2539C260.148 57.6786 260.089 57.2254 259.86 56.897C259.633 56.5671 259.276 56.4026 258.792 56.4026C258.345 56.4026 257.936 56.5584 257.567 56.8679C257.195 57.1786 256.968 57.558 256.882 58.0036C256.786 58.5041 256.851 58.8994 257.079 59.1904C257.307 59.483 257.686 59.6281 258.216 59.6281C258.382 59.6281 258.585 59.5786 258.824 59.4807C259.119 59.3597 259.364 59.1931 259.556 58.9803L259.094 60.3205L255.671 63.7055L254.937 63.0361L257.367 60.5598C256.765 60.4607 256.317 60.172 256.023 59.6908C255.729 59.2101 255.644 58.6552 255.764 58.0267C255.905 57.3007 256.285 56.6755 256.909 56.1524C257.531 55.6305 258.218 55.3693 258.967 55.3693C259.474 55.3693 259.902 55.4827 260.253 55.7102C260.603 55.9374 260.862 56.2624 261.031 56.6865C261.137 56.9598 261.186 57.2546 261.179 57.5724C261.17 57.8903 261.12 58.2841 261.031 58.7531L260.078 63.7055Z" fill="#FFFEFD"/>
<path d="M268.693 59.6617C268.914 58.5113 269.52 57.5119 270.508 56.6634C271.496 55.8165 272.552 55.3924 273.672 55.3924C274.331 55.3924 274.909 55.5326 275.407 55.8115C275.859 56.0617 276.237 56.4257 276.538 56.9031L275.56 57.5615C275.323 57.182 275.035 56.8944 274.698 56.6975C274.361 56.5017 273.955 56.4027 273.478 56.4027C272.645 56.4027 271.867 56.7266 271.144 57.3744C270.421 58.0207 269.975 58.7845 269.806 59.6617C269.647 60.4872 269.806 61.2197 270.281 61.8603C270.756 62.4994 271.41 62.8195 272.242 62.8195C272.764 62.8195 273.281 62.6857 273.791 62.4163C274.3 62.1479 274.735 61.7669 275.094 61.2752L275.866 61.934C275.358 62.5247 274.774 62.9915 274.113 63.337C273.453 63.6813 272.763 63.8529 272.044 63.8529C270.924 63.8529 270.028 63.4409 269.364 62.6154C268.697 61.79 268.473 60.8051 268.693 59.6617Z" fill="#FFFEFD"/>
<path d="M279.506 55.5277H283.561L283.367 56.5391H280.39L279.93 58.9357H282.679L282.485 59.946H279.735L279.525 61.036C279.424 61.5666 279.485 61.9748 279.71 62.2624C279.935 62.5516 280.308 62.6952 280.83 62.6952H282.182L281.988 63.7055H280.818C278.894 63.7055 278.115 62.7595 278.478 60.8655L279.506 55.5277Z" fill="#FFFEFD"/>
<path d="M284.701 63.7055L285.655 58.7531C285.751 58.2467 285.851 57.8468 285.953 57.5554C286.054 57.2644 286.22 56.9741 286.45 56.6865C287.134 55.8081 287.991 55.3693 289.02 55.3693C289.762 55.3693 290.346 55.6278 290.774 56.1475C291.199 56.6661 291.342 57.292 291.2 58.0267C291.07 58.7085 290.732 59.314 290.187 59.8443C289.643 60.3738 289.058 60.6395 288.438 60.6395C288.127 60.6395 287.86 60.6104 287.636 60.5537C287.413 60.497 287.218 60.4003 287.056 60.2638L287.115 58.9584C287.222 59.147 287.386 59.303 287.61 59.424C287.833 59.5446 288.073 59.605 288.33 59.605C288.739 59.605 289.113 59.4504 289.453 59.1398C289.793 58.8291 290.006 58.4511 290.092 58.0036C290.178 57.558 290.095 57.1786 289.846 56.8679C289.594 56.5584 289.245 56.4026 288.799 56.4026C288.315 56.4026 287.895 56.5671 287.54 56.897C287.185 57.2254 286.952 57.6786 286.841 58.2539L285.792 63.7055H284.701Z" fill="#FFFEFD"/>
<path d="M303.254 55.5277L302.275 60.6165C301.992 62.0848 302.433 62.8195 303.6 62.8195C304.13 62.8195 304.597 62.6385 304.999 62.2745C305.366 61.9412 305.591 61.5557 305.676 61.1157L306.751 55.5277H307.842L306.268 63.7055H305.178L305.305 63.0471C305.129 63.2969 304.854 63.4942 304.482 63.6378C304.11 63.7818 303.749 63.8529 303.401 63.8529C302.553 63.8529 301.922 63.569 301.509 63.001C301.097 62.4329 300.983 61.657 301.173 60.6735L302.163 55.5277H303.254Z" fill="#FFFEFD"/>
<path d="M309.602 59.6617C309.823 58.5113 310.429 57.5119 311.417 56.6634C312.405 55.8165 313.461 55.3924 314.581 55.3924C315.24 55.3924 315.817 55.5326 316.317 55.8115C316.769 56.0617 317.146 56.4257 317.447 56.9031L316.469 57.5615C316.232 57.182 315.944 56.8944 315.607 56.6975C315.27 56.5017 314.864 56.4027 314.387 56.4027C313.554 56.4027 312.776 56.7266 312.053 57.3744C311.33 58.0207 310.884 58.7845 310.715 59.6617C310.556 60.4872 310.715 61.2197 311.19 61.8603C311.665 62.4994 312.319 62.8195 313.152 62.8195C313.674 62.8195 314.19 62.6857 314.7 62.4163C315.21 62.1479 315.645 61.7669 316.004 61.2752L316.775 61.934C316.267 62.5247 315.684 62.9915 315.023 63.337C314.363 63.6813 313.673 63.8529 312.953 63.8529C311.833 63.8529 310.938 63.4409 310.273 62.6154C309.606 61.79 309.382 60.8051 309.602 59.6617Z" fill="#FFFEFD"/>
<path d="M318.921 63.7055L320.495 55.5277H321.563L320.911 58.9127H324.443L325.094 55.5277H326.173L324.6 63.7055H323.521L324.245 59.946H320.713L319.989 63.7055H318.921Z" fill="#FFFEFD"/>
<path d="M341.171 63.7055H340.081L341.13 58.2539C341.241 57.6786 341.182 57.2254 340.953 56.897C340.726 56.5671 340.37 56.4026 339.885 56.4026C339.438 56.4026 339.029 56.5584 338.66 56.8679C338.289 57.1786 338.062 57.558 337.976 58.0036C337.879 58.5041 337.944 58.8994 338.173 59.1904C338.4 59.483 338.779 59.6281 339.309 59.6281C339.475 59.6281 339.678 59.5786 339.918 59.4807C340.213 59.3597 340.458 59.1931 340.649 58.9803L340.187 60.3205L336.765 63.7055L336.03 63.0361L338.46 60.5598C337.859 60.4607 337.41 60.172 337.116 59.6908C336.823 59.2101 336.737 58.6552 336.858 58.0267C336.998 57.3007 337.379 56.6755 338.002 56.1524C338.625 55.6305 339.311 55.3693 340.06 55.3693C340.568 55.3693 340.996 55.4827 341.346 55.7102C341.697 55.9374 341.955 56.2624 342.125 56.6865C342.231 56.9598 342.279 57.2546 342.272 57.5724C342.263 57.8903 342.214 58.2841 342.125 58.7531L341.171 63.7055Z" fill="#FFFEFD"/>
<path d="M349.383 63.7055L350.956 55.5277H352.025L351.373 58.9127L355.091 55.5277H356.601L353.129 58.6394C353.298 58.5876 353.428 58.5611 353.519 58.5611C354.003 58.5611 354.419 58.746 354.764 59.1167C355.165 59.5484 355.303 60.0896 355.178 60.7412L354.607 63.7055H353.517L354.066 60.8546C354.132 60.5065 354.058 60.1996 353.845 59.935C353.594 59.6243 353.22 59.4697 352.721 59.4697C352.273 59.4697 351.897 59.5846 351.591 59.8156C351.286 60.0461 351.087 60.4003 350.995 60.8776L350.451 63.7055H349.383Z" fill="#FFFEFD"/>
<path d="M367.863 63.6945L370.308 56.4136C370.528 55.7476 370.88 55.4139 371.364 55.4139C371.787 55.4139 372.028 55.6872 372.081 56.2322L372.788 62.0583L375.727 56.2322C375.992 55.6872 376.335 55.4139 376.759 55.4139C377.243 55.4139 377.467 55.7476 377.43 56.4136L377.075 63.6945H376.029L376.393 56.9597L373.364 62.9673C373.075 63.5195 372.772 63.7961 372.454 63.7961C372.273 63.7961 372.138 63.7322 372.048 63.6026C371.96 63.4749 371.895 63.2621 371.853 62.9673L371.135 56.9597L368.919 63.6945H367.863Z" fill="#FFFEFD"/>
<path d="M380.955 63.7055H379.864L380.853 58.5611C381.043 57.5762 381.455 56.8003 382.086 56.2322C382.717 55.6642 383.458 55.3803 384.306 55.3803C385.154 55.3803 385.784 55.6642 386.197 56.2322C386.611 56.8003 386.722 57.5762 386.532 58.5611L385.542 63.7055H384.452L385.431 58.6178C385.714 57.1484 385.273 56.4136 384.107 56.4136C383.546 56.4136 383.08 56.5996 382.705 56.9707C382.33 57.3415 382.074 57.8903 381.934 58.6178L380.955 63.7055Z" fill="#FFFEFD"/>
<path d="M397.002 63.7055L398.576 55.5277H399.644L398.993 58.9127H402.524L403.176 55.5277H404.255L402.681 63.7055H401.602L402.326 59.946H398.795L398.071 63.7055H397.002Z" fill="#FFFEFD"/>
<path d="M408.265 55.5277L407.286 60.6165C407.003 62.0848 407.444 62.8195 408.61 62.8195C409.141 62.8195 409.607 62.6385 410.01 62.2745C410.377 61.9412 410.602 61.5557 410.687 61.1157L411.762 55.5277H412.852L411.279 63.7055H410.188L410.315 63.0471C410.139 63.2969 409.865 63.4942 409.493 63.6378C409.12 63.7818 408.76 63.8529 408.412 63.8529C407.564 63.8529 406.933 63.569 406.52 63.001C406.107 62.4329 405.994 61.657 406.184 60.6735L407.174 55.5277H408.265Z" fill="#FFFEFD"/>
<path d="M419.253 63.7055H418.162L419.211 58.2539C419.322 57.6786 419.263 57.2254 419.035 56.897C418.808 56.5671 418.451 56.4026 417.967 56.4026C417.519 56.4026 417.111 56.5584 416.741 56.8679C416.37 57.1786 416.143 57.558 416.057 58.0036C415.961 58.5041 416.026 58.8994 416.254 59.1904C416.481 59.483 416.861 59.6281 417.39 59.6281C417.557 59.6281 417.76 59.5786 417.999 59.4807C418.294 59.3597 418.539 59.1931 418.73 58.9803L418.269 60.3205L414.846 63.7055L414.112 63.0361L416.542 60.5598C415.94 60.4607 415.491 60.172 415.198 59.6908C414.904 59.2101 414.818 58.6552 414.939 58.0267C415.08 57.3007 415.46 56.6755 416.084 56.1524C416.706 55.6305 417.393 55.3693 418.142 55.3693C418.649 55.3693 419.077 55.4827 419.427 55.7102C419.778 55.9374 420.037 56.2624 420.206 56.6865C420.312 56.9598 420.361 57.2546 420.353 57.5724C420.345 57.8903 420.295 58.2841 420.206 58.7531L419.253 63.7055Z" fill="#FFFEFD"/>
<path fill-rule="evenodd" clip-rule="evenodd" d="M312.757 44.0421L312.034 47.8254C314.311 47.8258 316.425 47.8541 318.615 47.8254C320.574 47.8254 322.322 46.1541 322.893 44.2571L326.892 31.0927L327.277 30.7056L326.364 47.8254H333.773L335.07 22.0671H322.24C319.938 28.8998 316.8 38.2515 315.272 42.7763C314.96 43.5424 314.405 44.0046 313.837 44.0421H312.757Z" fill="#FFFEFD"/>
<path fill-rule="evenodd" clip-rule="evenodd" d="M340.397 26.3414C340.766 24.0087 342.833 22.0671 345.505 22.0634C348.756 22.0634 352.007 22.0634 355.258 22.0634C358.589 22.0671 359.578 24.4373 359.374 25.8066C358.227 32.1638 357.121 37.5023 355.974 43.8595C355.516 46.1994 353.396 47.8254 350.67 47.8254C347.451 47.8254 344.231 47.8254 341.011 47.8254C338.56 47.8254 336.692 46.0622 337.036 44.1271C338.17 37.8591 339.263 32.6094 340.397 26.3414ZM348.381 27.0569C347.299 32.7231 346.365 37.5832 345.292 43.2828C344.987 44.8346 347.677 44.8509 347.936 43.4744C348.987 37.8043 349.952 32.8819 351.001 27.2114C351.265 25.8058 348.605 25.6993 348.381 27.0569Z" fill="#FFFEFD"/>
<path fill-rule="evenodd" clip-rule="evenodd" d="M408.705 22.0668L416.681 22.0672L413.577 38.0443L414.072 37.5817L420.639 24.1122L421.295 22.0672L429.02 22.0668L424.232 47.8254H416.152L418.264 36.6142L413.342 46.3997L412.641 47.8254L403.853 47.825L408.705 22.0668Z" fill="#FFFEFD"/>
<path fill-rule="evenodd" clip-rule="evenodd" d="M294.366 26.3414C294.735 24.0087 296.802 22.0671 299.474 22.0634C302.725 22.0634 305.976 22.0634 309.226 22.0634C312.558 22.0671 313.546 24.4373 313.343 25.8066C312.196 32.1638 311.089 37.5023 309.943 43.8595C309.485 46.1994 307.365 47.8254 304.639 47.8254C301.419 47.8254 298.2 47.8254 294.98 47.8254C292.529 47.8254 290.661 46.0622 291.005 44.1271C292.139 37.8591 293.232 32.6094 294.366 26.3414ZM302.35 27.0569C301.268 32.7231 300.334 37.5832 299.261 43.2828C298.955 44.8346 301.646 44.8509 301.905 43.4744C302.956 37.8043 303.921 32.8819 304.97 27.2114C305.234 25.8058 302.574 25.6993 302.35 27.0569Z" fill="#FFFEFD"/>
</svg>
