<?xml version="1.0" encoding="UTF-8"?>
<!DOCTYPE svg PUBLIC "-//W3C//DTD SVG 1.1//EN" "http://www.w3.org/Graphics/SVG/1.1/DTD/svg11.dtd">
<!-- Creator: CorelDRAW -->
<svg xmlns="http://www.w3.org/2000/svg" xml:space="preserve" width="297mm" height="210mm" version="1.1" style="shape-rendering:geometricPrecision; text-rendering:geometricPrecision; image-rendering:optimizeQuality; fill-rule:evenodd; clip-rule:evenodd"
viewBox="0 0 29700 21000"
 xmlns:xlink="http://www.w3.org/1999/xlink"
 xmlns:xodm="http://www.corel.com/coreldraw/odm/2003">
 <defs>
  <style type="text/css">
   <![CDATA[
    .fil0 {fill:#FFFEFD}
    .fil1 {fill:#D8201F}
    .fil2 {fill:#FFFEFD;fill-rule:nonzero}
   ]]>
  </style>
 </defs>
 <g id="Слой_x0020_1">
  <metadata id="CorelCorpID_0Corel-Layer"/>
  <path class="fil0" d="M13522.37 3825.02l206.7 0c-36.17,193.94 -68.19,363.21 -104.35,557.15 -4.45,34.62 64.01,29.69 69.66,4.7l103.98 -561.86 225.24 0c-47.22,255.46 -99.93,523.26 -147.15,778.72 -19.85,105.43 -96.94,137.13 -154.3,137.73 -69.86,0.78 -139.72,1.56 -209.58,2.35 -59.01,1.06 -131.05,-6.68 -117.64,-77.86l15.41 -79.59 181.63 0c-1.43,6.94 -6.72,27.95 -8.91,38.2 -2.41,41.23 62.69,39.62 69.69,2.48l26.77 -139.76c-36.07,11.35 -82.63,35.98 -194.47,27.38 -26.41,-3.6 -86.22,-30.22 -74.22,-97.56l111.54 -592.08z"/>
  <path class="fil0" d="M14129.72 3819.77l218.6 0 -2.88 27.62c27.67,-14.59 39.58,-27.62 87.88,-27.62 25.75,0 62.54,0.01 90.96,0 63.94,-0.01 99.01,31.32 88.37,96.66 -32.85,169.38 -60.26,325.3 -93.11,494.69 -10.04,45.75 -29.95,73.37 -67.58,93.42 -37.62,20.05 -161.41,24.66 -229.79,-17.64 -12.54,65.17 -28.21,144.71 -40.74,209.89 -3.01,15.53 -19.28,44.95 -60.2,44.95l-163.16 0 171.65 -921.97zm206.86 96.78c2.67,-12.04 20.27,-18.43 37.85,-17.5 17.28,0.92 33.63,11.2 31.29,23.6 -30.79,163.41 -59.95,318.25 -90.8,482 -2.41,12.81 -22.05,20.48 -39.59,18.87 -16.99,-1.56 -31.94,-14.05 -29.75,-24.87 1.23,-8.55 4.15,-21.99 5.69,-30.24 29,-155.23 56.32,-296.63 85.31,-451.86z"/>
  <path class="fil0" d="M9910.93 3965.22c9.91,-3.46 15.8,-1.6 30.18,-7.56 45.85,-17.26 110.41,-35.36 173.69,-14.37 79.42,26.34 93.75,128.08 26.67,195.35 -67.08,67.27 -264.85,77.51 -319.58,16.17 -28.17,-31.04 -14.5,-96.58 -12.15,-111.21 26.1,-143.48 46.76,-242.46 72.86,-385.95 9.44,-50.13 39.64,-102.68 132.66,-102.68l1882.26 0 59.11 -313.81c-731.48,0 -1372.63,0 -2104.1,0 -318.88,0 -407.38,173.72 -437.97,336.07 -31.62,158.65 -59.29,311.31 -90.9,469.96 -51.58,335.32 287.75,466.34 528.87,469.67 235.58,10.51 657.36,-34.54 761.33,-412.98 103.22,-431.69 -325.77,-509.82 -645.41,-436.66 -20.69,106.4 -36.8,184.24 -57.52,298z"/>
  <path class="fil0" d="M11702.62 4498.54c31.84,-163.51 59.11,-319.29 90.95,-482.8 11.28,-77.34 144.76,-75.06 134.12,0l-90.96 482.8 447.34 0c36.13,-191.07 69.77,-373.03 105.9,-564.09 23.66,-124.61 -117.79,-253.04 -320.25,-267.23 -202.46,-14.19 -384.32,46.72 -459.87,109.69 -51.79,-62.97 -210.1,-123.88 -417.91,-109.69 -207.81,14.19 -397.74,142.62 -421.09,267.23 -35.97,191.06 -71,373.02 -106.97,564.09l447.34 0 91.23 -482.8c14.15,-80.96 145.79,-74.99 134.12,0 -29.86,163.51 -61.38,319.29 -91.24,482.8l457.29 0z"/>
  <polygon class="fil1" points="12054.73,3241.16 11995.62,3554.97 12440.72,3554.97 12499.84,3241.16 "/>
  <path class="fil2" d="M18786.44 4818.53c5.79,-30.06 21.74,-56.21 47.87,-78.44 26.09,-22.25 54.01,-33.35 83.65,-33.35 30.24,0 53.97,11.01 71.14,33.04 17.21,22.06 22.86,48.28 17.01,78.75 -5.82,30.25 -21.58,56.5 -47.32,78.73 -25.68,22.22 -53.65,33.34 -83.9,33.34 -29.65,0 -53.31,-11 -70.86,-33.06 -17.61,-22.03 -23.47,-48.38 -17.59,-79.01zm29.52 -0.32c-4.35,22.64 -0.33,42.5 12.14,59.51 12.44,17.04 29.77,25.54 52.02,25.54 22.23,0 42.8,-8.5 61.73,-25.54 18.89,-17.01 30.53,-36.87 34.88,-59.51 4.32,-22.41 0.32,-42.18 -12.06,-59.19 -12.34,-17.03 -29.64,-25.54 -51.86,-25.54 -22.04,0 -42.59,8.4 -61.65,25.26 -19.06,16.82 -30.82,36.64 -35.2,59.47z"/>
  <path class="fil2" d="M17170.43 4710.32c19.01,0 33.19,4.65 42.55,13.85 9.34,9.21 12.67,20.91 9.92,35.14 -2.25,11.64 -6.25,21.01 -12.03,28.1 -5.75,7.1 -12.59,11.87 -20.46,14.27 10.9,8.82 18.15,17.85 21.7,27.05 3.53,9.21 3.85,21.45 0.91,36.68 -3.14,16.21 -12.29,30.95 -27.44,44.15 -16.11,14.04 -33.58,21.04 -52.4,21.04 -24.66,0 -42.24,-7.61 -52.73,-22.83 -9.24,-13.43 -11.96,-30.05 -8.16,-49.88l28.39 -147.57 69.75 0zm-4.2 26.45l-42.08 0 -11.64 60.72c2.4,-1.21 25.68,-5.66 31.7,-6.33 5.98,-0.64 11.09,-1.54 14.26,-1.63 8.69,-0.35 19.63,0.32 25.67,-5.28 4.86,-4.53 8.16,-11.09 9.79,-19.53 3.58,-18.61 -5.67,-27.95 -27.7,-27.95zm-65.45 120.86c-2.59,13.88 -0.48,24.95 6.53,33.35 6.52,7.84 15.66,11.74 27.49,11.74 13.02,0 24.27,-4.26 33.71,-12.75 9.46,-8.54 15.35,-18.81 17.64,-30.83 2.06,-10.61 -0.34,-20.02 -7.18,-28.23 -6.82,-8.22 -16.18,-12.32 -27.99,-12.32 -15.44,0 -37.08,6.78 -45.12,12.99 -0.5,1.76 -0.69,2.68 -5.08,26.05z"/>
  <path class="fil2" d="M15959.82 4926.7l15.09 -78.43 -92.53 0 -15.1 78.43 -28.88 0 26.13 -135.83c5.05,-26.25 15.99,-46.87 32.68,-61.9 16.69,-15.03 36.29,-22.54 58.73,-22.54 22.46,0 39.11,7.51 50.05,22.54 10.93,15.03 13.85,35.65 8.79,61.9l-26.12 135.83 -28.84 0zm-9.02 -193.51c-14.83,0 -27.21,4.9 -37.09,14.71 -9.91,9.81 -16.69,24.33 -20.4,43.58l-5.66 29.45 92.54 0 5.66 -29.45c7.48,-38.88 -4.2,-58.29 -35.05,-58.29z"/>
  <path class="fil2" d="M19716.05 4926.7l15.1 -78.43 -92.54 0 -15.1 78.43 -28.86 0 26.11 -135.83c5.06,-26.25 15.99,-46.87 32.69,-61.9 16.69,-15.03 36.29,-22.54 58.74,-22.54 22.44,0 39.09,7.51 50.03,22.54 10.94,15.03 13.85,35.65 8.79,61.9l-26.11 135.83 -28.85 0zm-9.01 -193.51c-14.84,0 -27.21,4.9 -37.09,14.71 -9.92,9.81 -16.69,24.33 -20.41,43.58l-5.66 29.45 92.54 0 5.66 -29.45c7.48,-38.88 -4.19,-58.29 -35.04,-58.29z"/>
  <path class="fil2" d="M18105.4 4926.7l15.1 -78.43 -92.54 0 -15.08 78.43 -28.88 0 26.13 -135.83c5.04,-26.25 15.97,-46.87 32.67,-61.9 16.69,-15.03 36.29,-22.54 58.74,-22.54 22.44,0 39.11,7.51 50.03,22.54 10.95,15.03 13.85,35.65 8.8,61.9l-26.12 135.83 -28.85 0zm-9.01 -193.51c-14.84,0 -27.21,4.9 -37.09,14.71 -9.92,9.81 -16.69,24.33 -20.4,43.58l-5.66 29.45 92.53 0 5.66 -29.45c7.48,-38.88 -4.18,-58.29 -35.04,-58.29z"/>
  <path class="fil0" d="M12843.25 3657.45l-159.72 849.09c86.41,0 174.69,-0.01 264.06,0 1.95,-7.5 7.17,-22.42 8.62,-28.06 28.81,30.75 90.91,28.86 122.81,28.06 65.14,0 13.06,0.08 76.06,0.08 79.8,-0.08 134.42,-40.88 146.28,-103.83 22.42,-116.65 69.52,-357.59 91.82,-474.41 10.66,-69.58 -45.98,-103.36 -94.83,-103.36 -66.03,0 -111.93,0 -177.95,0 -6.89,0 -35.73,6.63 -39.75,14.18l31.69 -168.22 297.06 0 31.01 -92.4c-166.96,0 -344.18,0.01 -511.14,0 -48.28,-0.01 -74.66,19.87 -86.02,78.87zm226.35 292.43c7.54,-28.89 28.02,-35.56 50.33,-35.14 23.42,0.44 37.32,18.32 32.27,45.15 -18.21,94.99 -61.88,332 -76.13,404.09 -4.86,25.8 -33.78,37.4 -55.89,35.02 -13.12,-1.41 -35.31,-13.2 -31.01,-34.23l80.43 -414.89z"/>
  <path class="fil0" d="M15724.62 4191.47l-280.32 0c-12.51,69.73 -24.22,128.66 -37.42,198.62 -4.22,20.15 15.99,28.3 29.47,29.17 14.33,0.92 35.28,-3.54 40.97,-26.61l24.77 -132.03 209.21 0c-2.17,11.55 -8.62,24.49 -11.15,37.95 -9.05,48.11 -19.4,103.08 -23.82,126.92 -9.74,46.23 -71.57,83.04 -117.74,83.91 -89.94,0 -175.88,0 -265.82,0 -63.5,-1.55 -124.93,-28.83 -114.07,-96.91 31.6,-170.59 63.69,-335.86 95.29,-506.44 10.12,-44.33 72.2,-85.69 134.28,-86.28 85.81,0 171.62,0 257.44,0 82.37,0 118.16,55.63 112.49,86.28l-53.58 285.42zm-266.16 -75.64l70.93 0c12.14,-67.77 19.6,-100.92 31.72,-167.89 2.22,-11.78 -17.24,-22.83 -31.59,-23.26 -13.42,-0.4 -36.38,6.44 -38.53,18.16l-32.53 172.99z"/>
  <polygon class="fil0" points="15875.61,3823.85 16111.15,3823.85 16111.15,4027.33 16117.66,4042.52 16203.68,3825.02 16417.75,3825.02 16269.1,4134.99 16313.94,4506.54 16079.52,4506.54 16079.52,4260.73 16071.64,4241.75 15964.78,4506.54 15750.11,4506.54 15912.88,4155.26 "/>
  <polygon class="fil0" points="16529.41,3825.02 16745.22,3825.02 16691.25,4111.5 16761.58,4110.11 16815.29,3825.02 17031.29,3825.02 16902.89,4506.54 16686.89,4506.54 16746.67,4190.35 16676.18,4191.46 16616.83,4506.54 16401.02,4506.54 "/>
  <polygon class="fil0" points="18961.72,3824.86 18833.4,4506.54 19058.35,4506.53 19171.83,3909.34 19364.81,3909.34 19391.33,3825.02 "/>
  <polygon class="fil0" points="19464.76,3825.01 19675.78,3825.02 19593.66,4247.75 19606.76,4235.51 19780.51,3879.13 19797.87,3825.02 20002.27,3825.01 19875.59,4506.54 19661.81,4506.54 19717.68,4209.91 19587.44,4468.82 19568.9,4506.54 19336.38,4506.53 "/>
  <polygon class="fil0" points="14681.48,3825.02 14664.44,3915.5 14830.27,3915.5 14718.92,4506.54 14943.8,4506.54 15055.14,3915.5 15204.48,3915.5 15231.77,3825.02 "/>
  <path class="fil2" d="M14477.27 4926.7l-28.87 0 26.19 -136.11c5.02,-26.06 15.92,-46.59 32.61,-61.62 16.69,-15.03 36.29,-22.54 58.74,-22.54 22.45,0 39.1,7.51 50.04,22.54 10.93,15.03 13.88,35.56 8.86,61.62l-26.19 136.11 -28.84 0 25.9 -134.61c7.48,-38.88 -4.19,-58.32 -35.05,-58.32 -14.83,0 -27.18,4.92 -37.09,14.74 -9.91,9.81 -16.69,24.33 -20.4,43.58l-25.9 134.61z"/>
  <path class="fil2" d="M14715.71 4710.33l107.31 0 -5.15 26.76 -78.75 0 -12.19 63.41 72.75 0 -5.15 26.73 -72.74 0 -5.57 28.84c-2.68,14.04 -1.05,24.84 4.89,32.45 5.95,7.65 15.83,11.45 29.64,11.45l35.78 0 -5.14 26.73 -30.96 0c-50.9,0 -71.52,-25.03 -61.9,-75.14l27.18 -141.23z"/>
  <path class="fil2" d="M14853.17 4926.7l25.23 -131.03c2.56,-13.4 5.21,-23.98 7.9,-31.69 2.68,-7.7 7.06,-15.38 13.14,-22.99 18.1,-23.24 40.77,-34.85 68.01,-34.85 19.63,0 35.08,6.84 46.4,20.59 11.25,13.72 15.02,30.28 11.28,49.72 -3.45,18.04 -12.4,34.06 -26.82,48.09 -14.39,14.01 -29.87,21.04 -46.27,21.04 -8.22,0 -15.29,-0.77 -21.2,-2.27 -5.92,-1.5 -11.06,-4.06 -15.35,-7.67l1.54 -34.54c2.84,4.99 7.19,9.12 13.1,12.32 5.92,3.19 12.25,4.79 19.06,4.79 10.81,0 20.72,-4.09 29.71,-12.31 9.01,-8.22 14.64,-18.22 16.91,-30.06 2.27,-11.79 0.07,-21.83 -6.52,-30.05 -6.65,-8.19 -15.89,-12.31 -27.69,-12.31 -12.82,0 -23.92,4.35 -33.32,13.08 -9.4,8.69 -15.54,20.68 -18.48,35.9l-27.76 144.24 -28.87 0z"/>
  <path class="fil2" d="M15050.07 4926.41l64.69 -192.64c5.82,-17.62 15.12,-26.45 27.95,-26.45 11.19,0 17.55,7.23 18.96,21.65l18.7 154.15 77.76 -154.15c7.01,-14.42 16.09,-21.65 27.31,-21.65 12.82,0 18.74,8.83 17.75,26.45l-9.4 192.64 -27.66 0 9.62 -178.19 -80.13 158.95c-7.64,14.61 -15.66,21.93 -24.07,21.93 -4.8,0 -8.38,-1.69 -10.75,-5.12 -2.33,-3.38 -4.06,-9.01 -5.14,-16.81l-19.03 -158.95 -58.61 178.19 -27.95 0z"/>
  <path class="fil2" d="M15380.91 4819.71c5.85,-30.44 21.87,-56.88 48.03,-79.33 26.12,-22.41 54.06,-33.63 83.71,-33.63 17.42,0 32.71,3.71 45.91,11.09 11.96,6.62 21.94,16.25 29.9,28.88l-25.87 17.42c-6.27,-10.04 -13.88,-17.65 -22.8,-22.86 -8.92,-5.18 -19.66,-7.8 -32.29,-7.8 -22.03,0 -42.62,8.57 -61.75,25.71 -19.12,17.1 -30.92,37.31 -35.39,60.52 -4.22,21.84 0,41.22 12.56,58.17 12.57,16.91 29.87,25.38 51.9,25.38 13.81,0 27.47,-3.54 40.96,-10.67 13.49,-7.1 25,-17.18 34.5,-30.19l20.4 17.43c-13.43,15.63 -28.87,27.98 -46.36,37.12 -17.46,9.11 -35.72,13.65 -54.74,13.65 -29.65,0 -53.34,-10.9 -70.92,-32.74 -17.66,-21.84 -23.57,-47.9 -17.75,-78.15z"/>
  <path class="fil2" d="M15627.47 4926.7l41.63 -216.37 28.27 0 -17.24 89.56 98.36 -89.56 39.96 0 -91.86 82.33c4.48,-1.37 7.9,-2.07 10.33,-2.07 12.79,0 23.79,4.89 32.93,14.7 10.62,11.42 14.26,25.74 10.94,42.98l-15.09 78.43 -28.85 0 14.52 -75.43c1.76,-9.21 -0.19,-17.33 -5.85,-24.33 -6.62,-8.22 -16.53,-12.31 -29.74,-12.31 -11.83,0 -21.8,3.04 -29.89,9.15 -8.06,6.1 -13.34,15.47 -15.77,28.1l-14.39 74.82 -28.26 0z"/>
  <path class="fil2" d="M16199.63 4926.7l-28.84 0 27.75 -144.24c2.94,-15.22 1.38,-27.21 -4.67,-35.9 -6.01,-8.73 -15.44,-13.08 -28.26,-13.08 -11.83,0 -22.64,4.12 -32.42,12.31 -9.82,8.22 -15.83,18.26 -18.1,30.05 -2.56,13.24 -0.83,23.7 5.21,31.4 6.01,7.74 16.05,11.58 30.06,11.58 4.41,0 9.78,-1.31 16.11,-3.9 7.8,-3.2 14.29,-7.61 19.35,-13.24l-12.22 35.46 -90.55 89.56 -19.44 -17.71 64.3 -65.52c-15.92,-2.62 -27.79,-10.26 -35.56,-22.99 -7.77,-12.72 -10.04,-27.4 -6.84,-44.03 3.71,-19.21 13.78,-35.75 30.28,-49.59 16.47,-13.81 34.63,-20.72 54.45,-20.72 13.43,0 24.75,3 34.03,9.02 9.27,6.01 16.11,14.61 20.59,25.83 2.81,7.23 4.09,15.03 3.9,23.44 -0.23,8.41 -1.54,18.83 -3.9,31.24l-25.23 131.03z"/>
  <path class="fil2" d="M16427.58 4819.71c5.85,-30.44 21.87,-56.88 48.03,-79.33 26.12,-22.41 54.07,-33.63 83.71,-33.63 17.42,0 32.71,3.71 45.91,11.09 11.96,6.62 21.94,16.25 29.9,28.88l-25.87 17.42c-6.27,-10.04 -13.88,-17.65 -22.8,-22.86 -8.92,-5.18 -19.66,-7.8 -32.29,-7.8 -22.03,0 -42.62,8.57 -61.75,25.71 -19.12,17.1 -30.91,37.31 -35.39,60.52 -4.22,21.84 0,41.22 12.56,58.17 12.57,16.91 29.87,25.38 51.9,25.38 13.81,0 27.47,-3.54 40.96,-10.67 13.49,-7.1 25,-17.18 34.5,-30.19l20.4 17.43c-13.43,15.63 -28.87,27.98 -46.36,37.12 -17.46,9.11 -35.72,13.65 -54.74,13.65 -29.64,0 -53.34,-10.9 -70.92,-32.74 -17.65,-21.84 -23.57,-47.9 -17.75,-78.15z"/>
  <path class="fil2" d="M16713.66 4710.33l107.31 0 -5.15 26.76 -78.75 0 -12.19 63.41 72.75 0 -5.15 26.73 -72.74 0 -5.57 28.84c-2.68,14.04 -1.05,24.84 4.89,32.45 5.95,7.65 15.83,11.45 29.64,11.45l35.78 0 -5.14 26.73 -30.95 0c-50.91,0 -71.53,-25.03 -61.91,-75.14l27.18 -141.23z"/>
  <path class="fil2" d="M16851.12 4926.7l25.23 -131.03c2.56,-13.4 5.21,-23.98 7.9,-31.69 2.68,-7.7 7.06,-15.38 13.14,-22.99 18.1,-23.24 40.77,-34.85 68.01,-34.85 19.63,0 35.08,6.84 46.4,20.59 11.25,13.72 15.02,30.28 11.28,49.72 -3.45,18.04 -12.4,34.06 -26.82,48.09 -14.39,14.01 -29.87,21.04 -46.27,21.04 -8.22,0 -15.29,-0.77 -21.2,-2.27 -5.92,-1.5 -11.06,-4.06 -15.35,-7.67l1.54 -34.54c2.84,4.99 7.19,9.12 13.11,12.32 5.91,3.19 12.24,4.79 19.05,4.79 10.81,0 20.72,-4.09 29.71,-12.31 9.01,-8.22 14.64,-18.22 16.91,-30.06 2.27,-11.79 0.07,-21.83 -6.52,-30.05 -6.65,-8.19 -15.89,-12.31 -27.69,-12.31 -12.82,0 -23.92,4.35 -33.32,13.08 -9.4,8.69 -15.54,20.68 -18.48,35.9l-27.76 144.24 -28.87 0z"/>
  <path class="fil2" d="M17342 4710.33l-25.9 134.64c-7.48,38.85 4.19,58.29 35.05,58.29 14.03,0 26.38,-4.79 37.02,-14.42 9.72,-8.82 15.67,-19.02 17.91,-30.66l28.46 -147.85 28.84 0 -41.63 216.37 -28.84 0 3.35 -17.42c-4.66,6.61 -11.92,11.83 -21.77,15.63 -9.85,3.81 -19.38,5.69 -28.59,5.69 -22.44,0 -39.13,-7.51 -50.07,-22.54 -10.9,-15.03 -13.91,-35.56 -8.89,-61.58l26.19 -136.15 28.87 0z"/>
  <path class="fil2" d="M17509.97 4819.71c5.85,-30.44 21.87,-56.88 48.02,-79.33 26.13,-22.41 54.07,-33.63 83.71,-33.63 17.43,0 32.71,3.71 45.92,11.09 11.96,6.62 21.94,16.25 29.9,28.88l-25.87 17.42c-6.27,-10.04 -13.88,-17.65 -22.8,-22.86 -8.92,-5.18 -19.66,-7.8 -32.29,-7.8 -22.03,0 -42.63,8.57 -61.75,25.71 -19.12,17.1 -30.92,37.31 -35.39,60.52 -4.22,21.84 0,41.22 12.56,58.17 12.57,16.91 29.87,25.38 51.9,25.38 13.81,0 27.46,-3.54 40.96,-10.67 13.49,-7.1 25,-17.18 34.5,-30.19l20.4 17.43c-13.43,15.63 -28.87,27.98 -46.36,37.12 -17.46,9.11 -35.72,13.65 -54.75,13.65 -29.64,0 -53.33,-10.9 -70.92,-32.74 -17.65,-21.84 -23.56,-47.9 -17.74,-78.15z"/>
  <polygon class="fil2" points="17756.53,4926.7 17798.16,4710.33 17826.42,4710.33 17809.19,4799.89 17902.62,4799.89 17919.86,4710.33 17948.41,4710.33 17906.78,4926.7 17878.22,4926.7 17897.38,4827.23 17803.95,4827.23 17784.79,4926.7 "/>
  <path class="fil2" d="M18345.22 4926.7l-28.84 0 27.75 -144.24c2.94,-15.22 1.38,-27.21 -4.67,-35.9 -6.01,-8.73 -15.44,-13.08 -28.26,-13.08 -11.83,0 -22.64,4.12 -32.42,12.31 -9.82,8.22 -15.83,18.26 -18.1,30.05 -2.56,13.24 -0.83,23.7 5.21,31.4 6.01,7.74 16.05,11.58 30.06,11.58 4.41,0 9.78,-1.31 16.11,-3.9 7.8,-3.2 14.29,-7.61 19.35,-13.24l-12.22 35.46 -90.55 89.56 -19.44 -17.71 64.3 -65.52c-15.92,-2.62 -27.79,-10.26 -35.56,-22.99 -7.77,-12.72 -10.04,-27.4 -6.84,-44.03 3.71,-19.21 13.78,-35.75 30.28,-49.59 16.47,-13.81 34.63,-20.72 54.45,-20.72 13.43,0 24.75,3 34.03,9.02 9.27,6.01 16.11,14.61 20.59,25.83 2.81,7.23 4.09,15.03 3.9,23.44 -0.23,8.41 -1.54,18.83 -3.9,31.24l-25.23 131.03z"/>
  <path class="fil2" d="M18562.49 4926.7l41.63 -216.37 28.27 0 -17.24 89.56 98.36 -89.56 39.97 0 -91.87 82.33c4.48,-1.37 7.9,-2.07 10.33,-2.07 12.79,0 23.79,4.89 32.93,14.7 10.62,11.42 14.26,25.74 10.94,42.98l-15.09 78.43 -28.84 0 14.51 -75.43c1.76,-9.21 -0.19,-17.33 -5.85,-24.33 -6.62,-8.22 -16.53,-12.31 -29.74,-12.31 -11.83,0 -21.8,3.04 -29.89,9.15 -8.06,6.1 -13.34,15.47 -15.77,28.1l-14.38 74.82 -28.27 0z"/>
  <path class="fil2" d="M19051.45 4926.41l64.69 -192.64c5.82,-17.62 15.12,-26.45 27.94,-26.45 11.19,0 17.56,7.23 18.96,21.65l18.71 154.15 77.76 -154.15c7.01,-14.42 16.09,-21.65 27.31,-21.65 12.82,0 18.74,8.83 17.75,26.45l-9.4 192.64 -27.66 0 9.62 -178.19 -80.13 158.95c-7.64,14.61 -15.67,21.93 -24.08,21.93 -4.79,0 -8.37,-1.69 -10.74,-5.12 -2.33,-3.38 -4.06,-9.01 -5.15,-16.81l-19.02 -158.95 -58.61 178.19 -27.95 0z"/>
  <path class="fil2" d="M19397.84 4926.7l-28.88 0 26.19 -136.11c5.02,-26.06 15.93,-46.59 32.62,-61.62 16.69,-15.03 36.29,-22.54 58.73,-22.54 22.45,0 39.11,7.51 50.04,22.54 10.94,15.03 13.88,35.56 8.86,61.62l-26.19 136.11 -28.84 0 25.9 -134.61c7.48,-38.88 -4.19,-58.32 -35.04,-58.32 -14.84,0 -27.18,4.92 -37.09,14.74 -9.92,9.81 -16.69,24.33 -20.4,43.58l-25.9 134.61z"/>
  <polygon class="fil2" points="19822.43,4926.7 19864.07,4710.33 19892.33,4710.33 19875.1,4799.89 19968.53,4799.89 19985.76,4710.33 20014.32,4710.33 19972.68,4926.7 19944.13,4926.7 19963.28,4827.23 19869.85,4827.23 19850.7,4926.7 "/>
  <path class="fil2" d="M20120.41 4710.33l-25.9 134.64c-7.48,38.85 4.19,58.29 35.04,58.29 14.04,0 26.38,-4.79 37.03,-14.42 9.72,-8.82 15.67,-19.02 17.91,-30.66l28.45 -147.85 28.85 0 -41.63 216.37 -28.85 0 3.36 -17.42c-4.67,6.61 -11.93,11.83 -21.77,15.63 -9.85,3.81 -19.38,5.69 -28.59,5.69 -22.45,0 -39.14,-7.51 -50.07,-22.54 -10.91,-15.03 -13.91,-35.56 -8.89,-61.58l26.19 -136.15 28.87 0z"/>
  <path class="fil2" d="M20411.13 4926.7l-28.84 0 27.75 -144.24c2.94,-15.22 1.37,-27.21 -4.67,-35.9 -6.01,-8.73 -15.44,-13.08 -28.26,-13.08 -11.84,0 -22.64,4.12 -32.43,12.31 -9.81,8.22 -15.83,18.26 -18.1,30.05 -2.55,13.24 -0.83,23.7 5.22,31.4 6.01,7.74 16.05,11.58 30.05,11.58 4.42,0 9.79,-1.31 16.12,-3.9 7.8,-3.2 14.29,-7.61 19.34,-13.24l-12.21 35.46 -90.55 89.56 -19.44 -17.71 64.3 -65.52c-15.93,-2.62 -27.79,-10.26 -35.56,-22.99 -7.77,-12.72 -10.04,-27.4 -6.84,-44.03 3.71,-19.21 13.78,-35.75 30.28,-49.59 16.47,-13.81 34.63,-20.72 54.45,-20.72 13.43,0 24.75,3 34.02,9.02 9.28,6.01 16.12,14.61 20.59,25.83 2.82,7.23 4.1,15.03 3.91,23.44 -0.23,8.41 -1.54,18.83 -3.91,31.24l-25.22 131.03z"/>
  <path class="fil0" d="M17593.43 4406.44l-19.13 100.1c60.25,0.01 116.2,0.76 174.14,0 51.83,0 98.06,-44.22 113.19,-94.41l105.81 -348.31 10.17 -10.24 -24.15 452.96 196.02 0 34.32 -681.52 -339.47 0c-60.9,180.78 -143.93,428.21 -184.34,547.93 -8.27,20.27 -22.96,32.5 -37.97,33.49l-28.59 0z"/>
  <path class="fil0" d="M18324.74 3938.11c9.78,-61.72 64.46,-113.09 135.15,-113.19 86.02,0 172.03,0 258.04,0 88.14,0.1 114.3,62.81 108.91,99.04 -30.34,168.2 -59.62,309.45 -89.96,477.65 -12.1,61.91 -68.2,104.93 -140.32,104.93 -85.19,0 -170.38,0 -255.57,0 -64.84,0 -114.28,-46.65 -105.17,-97.85 30,-165.84 58.92,-304.74 88.92,-470.58zm211.25 18.93c-28.62,149.92 -53.33,278.51 -81.73,429.31 -8.08,41.06 63.1,41.49 69.96,5.07 27.8,-150.02 53.34,-280.26 81.1,-430.29 6.98,-37.19 -63.41,-40.01 -69.33,-4.09z"/>
  <polygon class="fil0" points="20132.06,3825.01 20343.08,3825.02 20260.96,4247.75 20274.06,4235.51 20447.81,3879.13 20465.17,3825.02 20669.57,3825.01 20542.89,4506.54 20329.11,4506.54 20384.98,4209.91 20254.74,4468.82 20236.2,4506.54 20003.68,4506.53 "/>
  <path class="fil0" d="M17106.83 3938.11c9.78,-61.72 64.46,-113.09 135.15,-113.19 86.02,0 172.03,0 258.04,0 88.14,0.1 114.3,62.81 108.91,99.04 -30.34,168.2 -59.62,309.45 -89.96,477.65 -12.1,61.91 -68.2,104.93 -140.32,104.93 -85.19,0 -170.38,0 -255.57,0 -64.84,0 -114.28,-46.65 -105.17,-97.85 30,-165.84 58.92,-304.74 88.92,-470.58zm211.25 18.93c-28.62,149.92 -53.33,278.51 -81.73,429.31 -8.08,41.06 63.1,41.49 69.96,5.07 27.8,-150.02 53.34,-280.26 81.1,-430.29 6.98,-37.19 -63.41,-40.01 -69.33,-4.09z"/>
 </g>
</svg>
